{"title":"Matru Ki Bijlee Ka Mandola (2013) Hindi HDCAM MPEG - Exclusive","uid":8007705,"size":711358599,"categoryP":"video","categoryS":"movies","magnet":"?xt=urn:btih:2963a40d7e180cee44388aacb798e4641bbe8c66&amp;dn=Matru+Ki+Bijlee+Ka+Mandola+%282013%29+Hindi+HDCAM+MPEG+-+Exclusive&amp;tr=udp%3A%2F%2Ftracker.openbittorrent.com%3A80&amp;tr=udp%3A%2F%2Fopen.demonii.com%3A1337&amp;tr=udp%3A%2F%2Ftracker.coppersurfer.tk%3A6969&amp;tr=udp%3A%2F%2Fexodus.desync.com%3A6969","seeders":1,"leechers":0,"uploader":"tykoon123","files":-1,"time":1357930110,"description":"Poster: &lt;a href=&quot;\nhttp://imageshack.us/a/img856/3818/1354922344smotruonliner.jpg&quot; rel=&quot;nofollow&quot; target=&quot;_NEW&quot;&gt;\nhttp://imageshack.us/a/img856/3818/1354922344smotruonliner.jpg&lt;/a&gt;\n\nInfo:\nFormat : MPEG-PS\nFile size : 678 MiB\nDuration : 2h 12mn\nOverall bit rate mode : Variable\nOverall bit rate : 717 Kbps\n\nVideo #224\nID : 224 (0xE0)\nFormat : MPEG Video\nFormat version : Version 1\nFormat settings, BVOP : Yes\nFormat settings, Matrix : Custom\nFormat settings, GOP : Variable\nDuration : 2h 12mn\nBit rate mode : Variable\nBit rate : 643 Kbps\nWidth : 352 pixels\nHeight : 288 pixels\nDisplay aspect ratio : 4:3\nFrame rate : 25.000 fps\nStandard : PAL\nColor space : YUV\nBit depth : 8 bits\nScan type : Progressive\nCompression mode : Lossy\nBits/(Pixel*Frame) : 0.254\nStream size : 604 MiB (89%)\n\nAudio #192\nID : 192 (0xC0)\nFormat : MPEG Audio\nFormat version : Version 1\nFormat profile : Layer 2\nDuration : 2h 12mn\nBit rate mode : Constant\nBit rate : 64.0 Kbps\nChannel(s) : 2 channels\nSampling rate : 48.0 KHz\nCompression mode : Lossy\nStream size : 60.5 MiB (9%)\n\nScreens: &lt;a href=&quot;\nhttp://www.shotpix.com/images/07755376586024630841.jpg&quot; rel=&quot;nofollow&quot; target=&quot;_NEW&quot;&gt;\nhttp://www.shotpix.com/images/07755376586024630841.jpg&lt;/a&gt;\n\n\n\n\n\n\n\n\n","torrent":{"xt":"urn:btih:2963a40d7e180cee44388aacb798e4641bbe8c66","amp;dn":"Matru+Ki+Bijlee+Ka+Mandola+%282013%29+Hindi+HDCAM+MPEG+-+Exclusive","amp;tr":["udp%3A%2F%2Ftracker.openbittorrent.com%3A80","udp%3A%2F%2Fopen.demonii.com%3A1337","udp%3A%2F%2Ftracker.coppersurfer.tk%3A6969","udp%3A%2F%2Fexodus.desync.com%3A6969"],"infoHash":"2963a40d7e180cee44388aacb798e4641bbe8c66","infoHashBuffer":{"type":"Buffer","data":[41,99,164,13,126,24,12,238,68,56,138,172,183,152,228,100,27,190,140,102]},"announce":[],"urlList":[]}}